<svg xmlns="http://www.w3.org/2000/svg" width="800" height="450" viewBox="0 0 800 450">
  <defs>
    <linearGradient id="g" x1="0" y1="0" x2="1" y2="1">
      <stop offset="0" stop-color="#0ea5e9"/>
      <stop offset="1" stop-color="#f59e0b"/>
    </linearGradient>
  </defs>
  <rect x="0" y="0" width="800" height="450" fill="#fff"/>
  <rect x="20" y="20" width="760" height="410" rx="16" fill="url(#g)" opacity="0.15" stroke="#dadada"/>
  <g transform="translate(40,40)">
    <rect x="0" y="0" width="720" height="80" rx="12" fill="#0ea5e9" opacity="0.15"/>
    <text x="20" y="50" font-family="Inter, Arial, sans-serif" font-size="32" font-weight="700" fill="#0b1b2b">
      Keselamatan Kerja (K3)
    </text>
  </g>
  <g transform="translate(40,150)">
    <circle cx="40" cy="40" r="28" fill="#f59e0b" opacity="0.9"/>
    <path d="M40 28 l10 24 h-20 z" fill="#fff"/>
    <text x="90" y="35" font-family="Inter, Arial, sans-serif" font-size="22" font-weight="700" fill="#0b1b2b">
      Faktor manusia
    </text>
    <text x="90" y="62" font-family="Inter, Arial, sans-serif" font-size="14" fill="#263238">
      Kelelahan • Kurang terlatih • Tidak patuh SOP • Stres
    </text>
  </g>
  <g transform="translate(40,240)">
    <circle cx="40" cy="40" r="28" fill="#0ea5e9" opacity="0.9"/>
    <path d="M40 26 v28 M26 40 h28" stroke="#fff" stroke-width="6" stroke-linecap="round"/>
    <text x="90" y="35" font-family="Inter, Arial, sans-serif" font-size="22" font-weight="700" fill="#0b1b2b">
      Faktor alat kerja
    </text>
    <text x="90" y="62" font-family="Inter, Arial, sans-serif" font-size="14" fill="#263238">
      Alat tidak layak • Tanpa pengaman • Postur tidak sesuai
    </text>
  </g>
  <g transform="translate(40,330)">
    <circle cx="40" cy="40" r="28" fill="#10b981" opacity="0.9"/>
    <path d="M28 40 h24" stroke="#fff" stroke-width="6" stroke-linecap="round"/>
    <text x="90" y="35" font-family="Inter, Arial, sans-serif" font-size="22" font-weight="700" fill="#0b1b2b">
      Faktor lingkungan
    </text>
    <text x="90" y="62" font-family="Inter, Arial, sans-serif" font-size="14" fill="#263238">
      Area tidak memenuhi syarat • Kebisingan • Ventilasi buruk
    </text>
  </g>
</svg>
